<mxfile host="Electron" modified="2023-11-22T13:50:31.516Z" agent="Mozilla/5.0 (Windows NT 10.0; Win64; x64) AppleWebKit/537.36 (KHTML, like Gecko) draw.io/22.1.2 Chrome/114.0.5735.289 Electron/25.9.4 Safari/537.36" etag="MP3b6UmOxVoBo6a3wD_t" version="22.1.2" type="device">
  <diagram name="Page-1" id="40Pc88UQL03xLk9ZbTZ7">
    <mxGraphModel dx="2245" dy="868" grid="1" gridSize="10" guides="1" tooltips="1" connect="1" arrows="1" fold="1" page="1" pageScale="1" pageWidth="827" pageHeight="1169" math="0" shadow="0">
      <root>
        <mxCell id="0" />
        <mxCell id="1" parent="0" />
        <mxCell id="B3p1m-zzCXsV-CzvUcfP-7" style="edgeStyle=orthogonalEdgeStyle;rounded=0;orthogonalLoop=1;jettySize=auto;html=1;exitX=0.5;exitY=1;exitDx=0;exitDy=0;entryX=0.5;entryY=0;entryDx=0;entryDy=0;" edge="1" parent="1" source="B3p1m-zzCXsV-CzvUcfP-3" target="B3p1m-zzCXsV-CzvUcfP-4">
          <mxGeometry relative="1" as="geometry" />
        </mxCell>
        <mxCell id="B3p1m-zzCXsV-CzvUcfP-3" value="Loading Page" style="rounded=0;whiteSpace=wrap;html=1;" vertex="1" parent="1">
          <mxGeometry x="80" y="40" width="120" height="190" as="geometry" />
        </mxCell>
        <mxCell id="B3p1m-zzCXsV-CzvUcfP-8" style="edgeStyle=orthogonalEdgeStyle;rounded=0;orthogonalLoop=1;jettySize=auto;html=1;exitX=1;exitY=0.25;exitDx=0;exitDy=0;entryX=0;entryY=0.25;entryDx=0;entryDy=0;" edge="1" parent="1" source="B3p1m-zzCXsV-CzvUcfP-4" target="B3p1m-zzCXsV-CzvUcfP-6">
          <mxGeometry relative="1" as="geometry" />
        </mxCell>
        <mxCell id="B3p1m-zzCXsV-CzvUcfP-12" style="edgeStyle=orthogonalEdgeStyle;rounded=0;orthogonalLoop=1;jettySize=auto;html=1;exitX=0.75;exitY=0;exitDx=0;exitDy=0;entryX=0.25;entryY=0;entryDx=0;entryDy=0;" edge="1" parent="1" source="B3p1m-zzCXsV-CzvUcfP-4" target="B3p1m-zzCXsV-CzvUcfP-5">
          <mxGeometry relative="1" as="geometry" />
        </mxCell>
        <mxCell id="B3p1m-zzCXsV-CzvUcfP-15" style="edgeStyle=orthogonalEdgeStyle;rounded=0;orthogonalLoop=1;jettySize=auto;html=1;exitX=0.5;exitY=1;exitDx=0;exitDy=0;entryX=0.5;entryY=0;entryDx=0;entryDy=0;" edge="1" parent="1" source="B3p1m-zzCXsV-CzvUcfP-4" target="B3p1m-zzCXsV-CzvUcfP-14">
          <mxGeometry relative="1" as="geometry" />
        </mxCell>
        <mxCell id="B3p1m-zzCXsV-CzvUcfP-4" value="Login" style="rounded=0;whiteSpace=wrap;html=1;" vertex="1" parent="1">
          <mxGeometry x="80" y="280" width="120" height="190" as="geometry" />
        </mxCell>
        <mxCell id="B3p1m-zzCXsV-CzvUcfP-11" style="edgeStyle=orthogonalEdgeStyle;rounded=0;orthogonalLoop=1;jettySize=auto;html=1;exitX=0;exitY=0.25;exitDx=0;exitDy=0;entryX=1;entryY=0.25;entryDx=0;entryDy=0;" edge="1" parent="1" source="B3p1m-zzCXsV-CzvUcfP-5" target="B3p1m-zzCXsV-CzvUcfP-6">
          <mxGeometry relative="1" as="geometry" />
        </mxCell>
        <mxCell id="B3p1m-zzCXsV-CzvUcfP-13" style="edgeStyle=orthogonalEdgeStyle;rounded=0;orthogonalLoop=1;jettySize=auto;html=1;exitX=0.25;exitY=1;exitDx=0;exitDy=0;entryX=0.75;entryY=1;entryDx=0;entryDy=0;" edge="1" parent="1" source="B3p1m-zzCXsV-CzvUcfP-5" target="B3p1m-zzCXsV-CzvUcfP-4">
          <mxGeometry relative="1" as="geometry" />
        </mxCell>
        <mxCell id="B3p1m-zzCXsV-CzvUcfP-5" value="Register" style="rounded=0;whiteSpace=wrap;html=1;" vertex="1" parent="1">
          <mxGeometry x="480" y="280" width="120" height="190" as="geometry" />
        </mxCell>
        <mxCell id="B3p1m-zzCXsV-CzvUcfP-9" style="edgeStyle=orthogonalEdgeStyle;rounded=0;orthogonalLoop=1;jettySize=auto;html=1;exitX=0;exitY=0.75;exitDx=0;exitDy=0;entryX=1;entryY=0.75;entryDx=0;entryDy=0;" edge="1" parent="1" source="B3p1m-zzCXsV-CzvUcfP-6" target="B3p1m-zzCXsV-CzvUcfP-4">
          <mxGeometry relative="1" as="geometry" />
        </mxCell>
        <mxCell id="B3p1m-zzCXsV-CzvUcfP-6" value="Password" style="rounded=0;whiteSpace=wrap;html=1;" vertex="1" parent="1">
          <mxGeometry x="280" y="280" width="120" height="190" as="geometry" />
        </mxCell>
        <mxCell id="B3p1m-zzCXsV-CzvUcfP-17" style="edgeStyle=orthogonalEdgeStyle;rounded=0;orthogonalLoop=1;jettySize=auto;html=1;exitX=0;exitY=0.25;exitDx=0;exitDy=0;entryX=1;entryY=0.25;entryDx=0;entryDy=0;" edge="1" parent="1" source="B3p1m-zzCXsV-CzvUcfP-14" target="B3p1m-zzCXsV-CzvUcfP-16">
          <mxGeometry relative="1" as="geometry" />
        </mxCell>
        <mxCell id="B3p1m-zzCXsV-CzvUcfP-26" style="edgeStyle=orthogonalEdgeStyle;rounded=0;orthogonalLoop=1;jettySize=auto;html=1;exitX=0.25;exitY=1;exitDx=0;exitDy=0;entryX=0.25;entryY=0;entryDx=0;entryDy=0;" edge="1" parent="1" source="B3p1m-zzCXsV-CzvUcfP-14" target="B3p1m-zzCXsV-CzvUcfP-25">
          <mxGeometry relative="1" as="geometry" />
        </mxCell>
        <mxCell id="B3p1m-zzCXsV-CzvUcfP-42" style="edgeStyle=orthogonalEdgeStyle;rounded=0;orthogonalLoop=1;jettySize=auto;html=1;exitX=1;exitY=0.25;exitDx=0;exitDy=0;entryX=0;entryY=0.25;entryDx=0;entryDy=0;" edge="1" parent="1" source="B3p1m-zzCXsV-CzvUcfP-14" target="B3p1m-zzCXsV-CzvUcfP-41">
          <mxGeometry relative="1" as="geometry" />
        </mxCell>
        <mxCell id="B3p1m-zzCXsV-CzvUcfP-49" style="edgeStyle=orthogonalEdgeStyle;rounded=0;orthogonalLoop=1;jettySize=auto;html=1;exitX=0.75;exitY=0;exitDx=0;exitDy=0;entryX=0.25;entryY=0;entryDx=0;entryDy=0;" edge="1" parent="1" source="B3p1m-zzCXsV-CzvUcfP-14" target="B3p1m-zzCXsV-CzvUcfP-19">
          <mxGeometry relative="1" as="geometry">
            <Array as="points">
              <mxPoint x="170" y="530" />
              <mxPoint x="520" y="530" />
            </Array>
          </mxGeometry>
        </mxCell>
        <mxCell id="B3p1m-zzCXsV-CzvUcfP-14" value="Home" style="rounded=0;whiteSpace=wrap;html=1;" vertex="1" parent="1">
          <mxGeometry x="80" y="560" width="120" height="190" as="geometry" />
        </mxCell>
        <mxCell id="B3p1m-zzCXsV-CzvUcfP-18" style="edgeStyle=orthogonalEdgeStyle;rounded=0;orthogonalLoop=1;jettySize=auto;html=1;exitX=1;exitY=0.75;exitDx=0;exitDy=0;entryX=0;entryY=0.75;entryDx=0;entryDy=0;" edge="1" parent="1" source="B3p1m-zzCXsV-CzvUcfP-16" target="B3p1m-zzCXsV-CzvUcfP-14">
          <mxGeometry relative="1" as="geometry" />
        </mxCell>
        <mxCell id="B3p1m-zzCXsV-CzvUcfP-32" style="edgeStyle=orthogonalEdgeStyle;rounded=0;orthogonalLoop=1;jettySize=auto;html=1;exitX=0;exitY=0.25;exitDx=0;exitDy=0;entryX=1;entryY=0.25;entryDx=0;entryDy=0;" edge="1" parent="1" source="B3p1m-zzCXsV-CzvUcfP-16" target="B3p1m-zzCXsV-CzvUcfP-29">
          <mxGeometry relative="1" as="geometry" />
        </mxCell>
        <mxCell id="B3p1m-zzCXsV-CzvUcfP-34" style="edgeStyle=orthogonalEdgeStyle;rounded=0;orthogonalLoop=1;jettySize=auto;html=1;exitX=0.25;exitY=0;exitDx=0;exitDy=0;entryX=1;entryY=0.75;entryDx=0;entryDy=0;" edge="1" parent="1" source="B3p1m-zzCXsV-CzvUcfP-16" target="B3p1m-zzCXsV-CzvUcfP-28">
          <mxGeometry relative="1" as="geometry" />
        </mxCell>
        <mxCell id="B3p1m-zzCXsV-CzvUcfP-16" value="Parameters" style="rounded=0;whiteSpace=wrap;html=1;" vertex="1" parent="1">
          <mxGeometry x="-120" y="560" width="120" height="190" as="geometry" />
        </mxCell>
        <mxCell id="B3p1m-zzCXsV-CzvUcfP-39" style="edgeStyle=orthogonalEdgeStyle;rounded=0;orthogonalLoop=1;jettySize=auto;html=1;exitX=0.25;exitY=1;exitDx=0;exitDy=0;entryX=0.25;entryY=0;entryDx=0;entryDy=0;" edge="1" parent="1" source="B3p1m-zzCXsV-CzvUcfP-19" target="B3p1m-zzCXsV-CzvUcfP-38">
          <mxGeometry relative="1" as="geometry" />
        </mxCell>
        <mxCell id="B3p1m-zzCXsV-CzvUcfP-45" style="edgeStyle=orthogonalEdgeStyle;rounded=0;orthogonalLoop=1;jettySize=auto;html=1;exitX=0;exitY=0.75;exitDx=0;exitDy=0;entryX=1;entryY=0.75;entryDx=0;entryDy=0;" edge="1" parent="1" source="B3p1m-zzCXsV-CzvUcfP-19" target="B3p1m-zzCXsV-CzvUcfP-41">
          <mxGeometry relative="1" as="geometry" />
        </mxCell>
        <mxCell id="B3p1m-zzCXsV-CzvUcfP-48" style="edgeStyle=orthogonalEdgeStyle;rounded=0;orthogonalLoop=1;jettySize=auto;html=1;exitX=0;exitY=0;exitDx=0;exitDy=0;entryX=1;entryY=0;entryDx=0;entryDy=0;" edge="1" parent="1" source="B3p1m-zzCXsV-CzvUcfP-19" target="B3p1m-zzCXsV-CzvUcfP-14">
          <mxGeometry relative="1" as="geometry" />
        </mxCell>
        <mxCell id="B3p1m-zzCXsV-CzvUcfP-52" style="edgeStyle=orthogonalEdgeStyle;rounded=0;orthogonalLoop=1;jettySize=auto;html=1;exitX=1;exitY=0.75;exitDx=0;exitDy=0;entryX=0.75;entryY=1;entryDx=0;entryDy=0;" edge="1" parent="1" source="B3p1m-zzCXsV-CzvUcfP-19" target="B3p1m-zzCXsV-CzvUcfP-25">
          <mxGeometry relative="1" as="geometry" />
        </mxCell>
        <mxCell id="B3p1m-zzCXsV-CzvUcfP-19" value="Trip View" style="rounded=0;whiteSpace=wrap;html=1;" vertex="1" parent="1">
          <mxGeometry x="490" y="560" width="120" height="190" as="geometry" />
        </mxCell>
        <mxCell id="B3p1m-zzCXsV-CzvUcfP-51" style="edgeStyle=orthogonalEdgeStyle;rounded=0;orthogonalLoop=1;jettySize=auto;html=1;exitX=0.75;exitY=0;exitDx=0;exitDy=0;entryX=0.75;entryY=1;entryDx=0;entryDy=0;" edge="1" parent="1" source="B3p1m-zzCXsV-CzvUcfP-22" target="B3p1m-zzCXsV-CzvUcfP-41">
          <mxGeometry relative="1" as="geometry" />
        </mxCell>
        <mxCell id="B3p1m-zzCXsV-CzvUcfP-22" value="New Trip" style="rounded=0;whiteSpace=wrap;html=1;" vertex="1" parent="1">
          <mxGeometry x="290" y="810" width="120" height="190" as="geometry" />
        </mxCell>
        <mxCell id="B3p1m-zzCXsV-CzvUcfP-27" style="edgeStyle=orthogonalEdgeStyle;rounded=0;orthogonalLoop=1;jettySize=auto;html=1;exitX=0.75;exitY=0;exitDx=0;exitDy=0;entryX=0.75;entryY=1;entryDx=0;entryDy=0;" edge="1" parent="1" source="B3p1m-zzCXsV-CzvUcfP-25" target="B3p1m-zzCXsV-CzvUcfP-14">
          <mxGeometry relative="1" as="geometry" />
        </mxCell>
        <mxCell id="B3p1m-zzCXsV-CzvUcfP-53" style="edgeStyle=orthogonalEdgeStyle;rounded=0;orthogonalLoop=1;jettySize=auto;html=1;exitX=0.5;exitY=1;exitDx=0;exitDy=0;entryX=1;entryY=0.5;entryDx=0;entryDy=0;" edge="1" parent="1" source="B3p1m-zzCXsV-CzvUcfP-25" target="B3p1m-zzCXsV-CzvUcfP-19">
          <mxGeometry relative="1" as="geometry">
            <Array as="points">
              <mxPoint x="140" y="1040" />
              <mxPoint x="650" y="1040" />
              <mxPoint x="650" y="655" />
            </Array>
          </mxGeometry>
        </mxCell>
        <mxCell id="B3p1m-zzCXsV-CzvUcfP-25" value="Add Step to current trip" style="rounded=0;whiteSpace=wrap;html=1;" vertex="1" parent="1">
          <mxGeometry x="80" y="810" width="120" height="190" as="geometry" />
        </mxCell>
        <mxCell id="B3p1m-zzCXsV-CzvUcfP-35" style="edgeStyle=orthogonalEdgeStyle;rounded=0;orthogonalLoop=1;jettySize=auto;html=1;exitX=1;exitY=0.5;exitDx=0;exitDy=0;entryX=0.5;entryY=0;entryDx=0;entryDy=0;" edge="1" parent="1" source="B3p1m-zzCXsV-CzvUcfP-28" target="B3p1m-zzCXsV-CzvUcfP-16">
          <mxGeometry relative="1" as="geometry" />
        </mxCell>
        <mxCell id="B3p1m-zzCXsV-CzvUcfP-28" value="Profile" style="rounded=0;whiteSpace=wrap;html=1;" vertex="1" parent="1">
          <mxGeometry x="-320" y="370" width="120" height="190" as="geometry" />
        </mxCell>
        <mxCell id="B3p1m-zzCXsV-CzvUcfP-33" style="edgeStyle=orthogonalEdgeStyle;rounded=0;orthogonalLoop=1;jettySize=auto;html=1;exitX=1;exitY=0.75;exitDx=0;exitDy=0;entryX=0;entryY=0.75;entryDx=0;entryDy=0;" edge="1" parent="1" source="B3p1m-zzCXsV-CzvUcfP-29" target="B3p1m-zzCXsV-CzvUcfP-16">
          <mxGeometry relative="1" as="geometry" />
        </mxCell>
        <mxCell id="B3p1m-zzCXsV-CzvUcfP-29" value="Account" style="rounded=0;whiteSpace=wrap;html=1;" vertex="1" parent="1">
          <mxGeometry x="-320" y="560" width="120" height="190" as="geometry" />
        </mxCell>
        <mxCell id="B3p1m-zzCXsV-CzvUcfP-36" style="edgeStyle=orthogonalEdgeStyle;rounded=0;orthogonalLoop=1;jettySize=auto;html=1;exitX=1;exitY=0.5;exitDx=0;exitDy=0;entryX=0.5;entryY=1;entryDx=0;entryDy=0;" edge="1" parent="1" source="B3p1m-zzCXsV-CzvUcfP-30" target="B3p1m-zzCXsV-CzvUcfP-16">
          <mxGeometry relative="1" as="geometry" />
        </mxCell>
        <mxCell id="B3p1m-zzCXsV-CzvUcfP-30" value="UI Parameters" style="rounded=0;whiteSpace=wrap;html=1;" vertex="1" parent="1">
          <mxGeometry x="-320" y="750" width="120" height="190" as="geometry" />
        </mxCell>
        <mxCell id="B3p1m-zzCXsV-CzvUcfP-37" style="edgeStyle=orthogonalEdgeStyle;rounded=0;orthogonalLoop=1;jettySize=auto;html=1;exitX=0.25;exitY=1;exitDx=0;exitDy=0;entryX=1;entryY=0.289;entryDx=0;entryDy=0;entryPerimeter=0;" edge="1" parent="1" source="B3p1m-zzCXsV-CzvUcfP-16" target="B3p1m-zzCXsV-CzvUcfP-30">
          <mxGeometry relative="1" as="geometry" />
        </mxCell>
        <mxCell id="B3p1m-zzCXsV-CzvUcfP-40" style="edgeStyle=orthogonalEdgeStyle;rounded=0;orthogonalLoop=1;jettySize=auto;html=1;exitX=0.75;exitY=0;exitDx=0;exitDy=0;entryX=0.75;entryY=1;entryDx=0;entryDy=0;" edge="1" parent="1" source="B3p1m-zzCXsV-CzvUcfP-38" target="B3p1m-zzCXsV-CzvUcfP-19">
          <mxGeometry relative="1" as="geometry" />
        </mxCell>
        <mxCell id="B3p1m-zzCXsV-CzvUcfP-38" value="Modify step" style="rounded=0;whiteSpace=wrap;html=1;" vertex="1" parent="1">
          <mxGeometry x="490" y="810" width="120" height="190" as="geometry" />
        </mxCell>
        <mxCell id="B3p1m-zzCXsV-CzvUcfP-43" style="edgeStyle=orthogonalEdgeStyle;rounded=0;orthogonalLoop=1;jettySize=auto;html=1;exitX=0;exitY=0.75;exitDx=0;exitDy=0;entryX=1;entryY=0.75;entryDx=0;entryDy=0;" edge="1" parent="1" source="B3p1m-zzCXsV-CzvUcfP-41" target="B3p1m-zzCXsV-CzvUcfP-14">
          <mxGeometry relative="1" as="geometry" />
        </mxCell>
        <mxCell id="B3p1m-zzCXsV-CzvUcfP-44" style="edgeStyle=orthogonalEdgeStyle;rounded=0;orthogonalLoop=1;jettySize=auto;html=1;exitX=1;exitY=0.25;exitDx=0;exitDy=0;entryX=0;entryY=0.25;entryDx=0;entryDy=0;" edge="1" parent="1" source="B3p1m-zzCXsV-CzvUcfP-41" target="B3p1m-zzCXsV-CzvUcfP-19">
          <mxGeometry relative="1" as="geometry" />
        </mxCell>
        <mxCell id="B3p1m-zzCXsV-CzvUcfP-50" style="edgeStyle=orthogonalEdgeStyle;rounded=0;orthogonalLoop=1;jettySize=auto;html=1;exitX=0.25;exitY=1;exitDx=0;exitDy=0;entryX=0.25;entryY=0;entryDx=0;entryDy=0;" edge="1" parent="1" source="B3p1m-zzCXsV-CzvUcfP-41" target="B3p1m-zzCXsV-CzvUcfP-22">
          <mxGeometry relative="1" as="geometry" />
        </mxCell>
        <mxCell id="B3p1m-zzCXsV-CzvUcfP-41" value="Trip Gallery" style="rounded=0;whiteSpace=wrap;html=1;" vertex="1" parent="1">
          <mxGeometry x="290" y="560" width="120" height="190" as="geometry" />
        </mxCell>
      </root>
    </mxGraphModel>
  </diagram>
</mxfile>
